# xmcd
#
# Track frame offsets:
#	150
#	21670
#	37942
#	56124
#	74019
#	91235
#	113388
#	126856
#	145162
#	162712
#	177185
#	196992
#	216770
#
# Disc length: 3137 seconds
#
# Revision: 0
# Processed by: cddbd v1.5.2PL0 Copyright (c) Steve Scherf et al.
# Submitted via: audiograbber 1.83.01
#
DISCID=bf0c3f0d
DTITLE=Clayton Lee - Don't Worry 'Bout Nut'in'
DYEAR=1993
DGENRE=blues
TTITLE0=Don't Worry 'Bout Nut'in
TTITLE1=Between Here And There
TTITLE2=Blue Lipstick
TTITLE3=Freedom To Stay
TTITLE4=Shuffle On
TTITLE5=True Believer
TTITLE6=Broke Again
TTITLE7=Until You're Gone
TTITLE8=I Know What Love Can Do
TTITLE9=Déja Vu Again
TTITLE10=The Bottom Line
TTITLE11=Big Top Hat
TTITLE12=Bumble Bee No Listen
EXTD=
EXTT0=
EXTT1=
EXTT2=
EXTT3=
EXTT4=
EXTT5=
EXTT6=
EXTT7=
EXTT8=
EXTT9=
EXTT10=
EXTT11=
EXTT12=
PLAYORDER=
